<!-- Generated by IcoMoon.io -->
<svg version="1.1" xmlns="http://www.w3.org/2000/svg" width="448" height="448" viewBox="0 0 448 448">
<title></title>
<g id="icomoon-ignore">
</g>
<path fill="#000" d="M320 256h76.25c-3 3.25-5 5-5.5 5.5l-155.75 150c-3 3-7 4.5-11 4.5s-8-1.5-11-4.5l-156-150.5c-0.5-0.25-2.5-2-5.25-5h92.25c7.25 0 13.75-5 15.5-12l17.5-70.25 47.5 166.75c2 6.75 8.25 11.5 15.5 11.5v0c7 0 13.25-4.75 15.25-11.5l36.5-121.25 14 28c2.75 5.25 8.25 8.75 14.25 8.75zM448 149c0 28.75-12.5 55-25.75 75h-92.25l-27.75-55.25c-2.75-5.75-9.25-9.25-15.5-8.75-6.75 0.75-12.25 5-14 11.5l-32.25 107.5-49-171.5c-2-6.75-8.25-11.5-15.75-11.5-7.25 0-13.5 5-15.25 12l-29 116h-105.75c-13.25-20-25.75-46.25-25.75-75 0-73.25 44.75-117 119.5-117 43.75 0 84.75 34.5 104.5 54 19.75-19.5 60.75-54 104.5-54 74.75 0 119.5 43.75 119.5 117z"></path>
</svg>
